Coordinates
version=1
nRows=60
nColumns=12
inDegrees=yes

Units are S.I. units (second, meters, Newtons, ...)
Angles are in degrees

endheader
time	SC_y	SC_z	SC_x	AC_y	AC_z	AC_x	GH_y	GH_z	GH_yy	EL_x	PS_y
       0.0               -38.2          26.07          50.04          35.54         -14.74          18.64          147.3          46.94          84.61          123.2          12.71
   0.02339              -38.19          26.06          50.04          35.54         -14.74          18.63          147.2          46.94          84.62          123.2          12.71
   0.04679              -38.19          26.06          50.05          35.55         -14.74          18.63          147.2          46.93          84.63          123.2          12.72
   0.07018              -38.19          26.06          50.05          35.55         -14.73          18.62          147.2          46.93          84.64          123.2          12.72
   0.09357              -38.19          26.06          50.06          35.56         -14.73          18.62          147.1          46.92          84.65          123.2          12.72
     0.117              -38.18          26.06          50.06          35.56         -14.73          18.61          147.1          46.92          84.67          123.2          12.73
    0.1404              -38.18          26.06          50.07          35.57         -14.73          18.61          147.0          46.91          84.68          123.2          12.73
    0.1638              -38.18          26.06          50.07          35.58         -14.73           18.6          147.0           46.9          84.69          123.2          12.74
    0.1871              -38.17          26.06          50.08          35.58         -14.73          18.59          147.0           46.9          84.71          123.2          12.74
    0.2105              -38.17          26.06          50.09          35.59         -14.72          18.59          146.9          46.89          84.73          123.2          12.75
    0.2339              -38.17          26.06           50.1           35.6         -14.72          18.58          146.9          46.88          84.74          123.2          12.76
    0.2573              -38.16          26.06           50.1          35.61         -14.72          18.57          146.8          46.87          84.76          123.2          12.76
    0.2807              -38.16          26.05          50.11          35.62         -14.72          18.56          146.7          46.86          84.79          123.2          12.77
    0.3041              -38.15          26.05          50.12          35.63         -14.71          18.55          146.7          46.85          84.81          123.3          12.78
    0.3275              -38.15          26.05          50.13          35.64         -14.71          18.54          146.6          46.84          84.83          123.3          12.79
    0.3509              -38.14          26.05          50.14          35.65         -14.71          18.53          146.5          46.83          84.86          123.3           12.8
    0.3743              -38.13          26.05          50.16          35.66         -14.71          18.52          146.4          46.81          84.89          123.3          12.81
    0.3977              -38.13          26.05          50.17          35.68          -14.7           18.5          146.3           46.8          84.92          123.3          12.82
    0.4211              -38.12          26.04          50.19          35.69          -14.7          18.49          146.2          46.78          84.95          123.3          12.83
    0.4445              -38.11          26.04           50.2          35.71         -14.69          18.47          146.1          46.77          84.99          123.3          12.84
    0.4679               -38.1          26.04          50.22          35.73         -14.69          18.46          146.0          46.75          85.03          123.3          12.86
    0.4913              -38.09          26.04          50.24          35.75         -14.68          18.44          145.9          46.73          85.08          123.3          12.87
    0.5147              -38.08          26.03          50.26          35.77         -14.68          18.41          145.7           46.7          85.13          123.3          12.89
     0.538              -38.07          26.03          50.28           35.8         -14.67          18.39          145.6          46.68          85.19          123.3          12.91
    0.5614              -38.05          26.02          50.31          35.82         -14.66          18.36          145.4          46.65          85.25          123.3          12.93
    0.5848              -38.04          26.02          50.34          35.85         -14.65          18.33          145.2          46.62          85.32          123.4          12.96
    0.6082              -38.02          26.02          50.37          35.89         -14.65           18.3          144.9          46.58          85.39          123.4          12.99
    0.6316               -38.0          26.01          50.41          35.93         -14.64          18.26          144.7          46.54          85.48          123.4          13.02
     0.655              -37.98           26.0          50.45          35.97         -14.62          18.22          144.4          46.49          85.58          123.4          13.05
    0.6784              -37.95           26.0           50.5          36.02         -14.61          18.17          144.1          46.44          85.69          123.4          13.09
    0.7018              -37.93          25.99          50.55          36.08          -14.6          18.12          143.7          46.38          85.82          123.5          13.14
    0.7252              -37.89          25.98          50.62          36.15         -14.58          18.05          143.3          46.31          85.97          123.5          13.19
    0.7486              -37.86          25.97          50.69          36.22         -14.56          17.98          142.8          46.24          86.14          123.5          13.25
     0.772              -37.81          25.96          50.77          36.31         -14.54           17.9          142.2          46.14          86.33          123.6          13.32
    0.7954              -37.76          25.94          50.87          36.41         -14.51           17.8          141.5          46.04          86.56          123.6           13.4
    0.8188               -37.7          25.92          50.99          36.54         -14.48          17.68          140.7          45.91          86.84          123.7           13.5
    0.8422              -37.63           25.9          51.12          36.68         -14.44          17.54          139.7          45.76          87.16          123.8          13.61
    0.8655              -37.54          25.88          51.29          36.85         -14.39          17.37          138.6          45.58          87.55          123.8          13.75
    0.8889              -37.44          25.85          51.49          37.06         -14.34          17.17          137.2          45.37          88.01          123.9          13.91
    0.9123              -37.31          25.81          51.73          37.32         -14.27          16.92          135.5           45.1          88.58          124.1          14.11
    0.9357              -37.15          25.77          52.03          37.64         -14.19          16.62          133.5          44.78          89.29          124.2          14.36
    0.9591              -36.95          25.71           52.4          38.03         -14.08          16.24          130.9          44.37          90.17          124.4          14.67
    0.9825              -36.71          25.64          52.88          38.53         -13.95          15.76          127.6          43.85          91.28          124.6          15.07
     1.006              -36.39          25.55          53.48          39.16         -13.79          15.16          123.4           43.2          92.69          125.0          15.56
     1.029              -35.99          25.44          54.24          39.97         -13.57          14.38          118.1          42.37          94.49          125.3           16.2
     1.053              -35.47          25.29          55.23           41.0          -13.3          13.38          111.3           41.3          96.81          125.8          17.02
     1.076              -34.81           25.1          56.48          42.33         -12.95          12.11          102.6          39.93          99.76          126.5          18.07
     1.099              -33.98          24.87          58.07          43.99         -12.52          10.51          91.64           38.2          103.5          127.3          19.38
     1.123              -32.97          24.58          59.99          46.02         -11.98          8.554          78.29          36.11          108.0          128.3          20.98
     1.146              -31.79          24.24          62.23          48.37         -11.36          6.292          62.82          33.68          113.3          129.4          22.84
      1.17              -30.52          23.88          64.65          50.92         -10.69          3.841          46.06          31.04          118.9          130.6          24.85
     1.193              -29.25          23.52          67.06          53.47         -10.02          1.391          29.31          28.41          124.6          131.9          26.86
     1.216              -28.07          23.19           69.3          55.82         -9.405        -0.8714          13.83          25.98          129.9          133.0          28.72
      1.24              -27.06           22.9          71.23          57.85         -8.871         -2.823         0.4807          23.88          134.4          134.0          30.32
     1.263              -26.23          22.66          72.81          59.52         -8.433         -4.425         -10.47          22.16          138.1          134.8          31.63
     1.287              -25.57          22.48          74.06          60.84         -8.085         -5.699         -19.19          20.79          141.1          135.4          32.68
      1.31              -25.05          22.33          75.05          61.88         -7.812         -6.697         -26.01          19.72          143.4          135.9           33.5
     1.333              -24.65          22.22          75.82          62.68         -7.599         -7.474         -31.32          18.88          145.2          136.3          34.13
     1.357              -24.33          22.13          76.42          63.32         -7.433         -8.081         -35.48          18.23          146.6          136.6          34.63
      1.38              -24.09          22.06          76.89          63.81         -7.303         -8.559         -38.74          17.72          147.7          136.9          35.02
